<?xml version="1.0" encoding="UTF-8"?>
<svg version="1.1" xmlns="http://www.w3.org/2000/svg" width="512" height="512">
<path d="M0 0 C1.29673141 -0.0071553 2.59346283 -0.01431061 3.92948914 -0.02168274 C5.34910559 -0.02452223 6.76872231 -0.02723405 8.18833923 -0.02983093 C9.69686029 -0.03610344 11.20537982 -0.04275093 12.71389771 -0.04974365 C17.64669235 -0.07067757 22.57948696 -0.08113004 27.51231384 -0.09111023 C29.21444146 -0.09516056 30.91656892 -0.09927757 32.61869621 -0.10346031 C40.61063527 -0.12248164 48.60256522 -0.13672394 56.59452254 -0.14507228 C65.81045291 -0.15485983 75.02614409 -0.18123155 84.24199015 -0.22157317 C91.37507679 -0.25172458 98.50809474 -0.26653987 105.64124388 -0.26985329 C109.8981249 -0.27220312 114.15474945 -0.28115621 118.41156197 -0.30631447 C122.41308078 -0.32958599 126.41417394 -0.33383236 130.41574287 -0.32355309 C131.88228267 -0.32305753 133.34884341 -0.32938378 134.81531906 -0.34310913 C136.82056757 -0.3608248 138.82600094 -0.35133767 140.83129883 -0.34057617 C141.9523253 -0.34296453 143.07335176 -0.34535288 144.22834873 -0.34781361 C148.98300593 0.40558787 152.17099476 2.68089992 155.16465759 6.39717102 C157.41442136 11.60715027 157.83613207 15.46749488 156.28965759 20.83467102 C153.56488444 25.49315415 150.59149031 28.40072678 145.35215759 30.14717102 C143.39445975 30.2417626 141.43365897 30.27616806 139.47367859 30.2784729 C137.6320665 30.28448517 137.6320665 30.28448517 135.75325012 30.2906189 C134.3900604 30.29014378 133.0268707 30.28960766 131.66368103 30.28901672 C130.22946567 30.2920487 128.79525127 30.29557026 127.36103821 30.29954529 C124.26884097 30.30743674 121.17665529 30.31258036 118.08444977 30.31583595 C113.18213391 30.32175553 108.27989032 30.33830872 103.37760925 30.35717773 C101.69701772 30.36351562 100.01642613 30.36984124 98.3358345 30.3761549 C97.49397992 30.37932071 96.65212533 30.38248652 95.78476 30.38574827 C84.3736453 30.42774184 72.96256308 30.46074723 61.55137634 30.47309875 C53.85361231 30.48151643 46.15602633 30.50414901 38.45835137 30.54245442 C34.39063231 30.56210257 30.32317873 30.57465773 26.25540924 30.56962013 C22.41717458 30.5649253 18.57944028 30.57903818 14.7413063 30.60663223 C13.34469623 30.61346561 11.94803352 30.61375701 10.55142593 30.60643196 C-8.87492045 30.51496453 -26.54706382 36.3635014 -40.64784241 50.14717102 C-53.47507144 64.7498641 -58.12522766 80.28544167 -58.03552246 99.47293091 C-58.03970437 100.8832832 -58.04518655 102.29363212 -58.05184227 103.7039749 C-58.06620353 107.54730995 -58.06208162 111.39042885 -58.05467546 115.23377526 C-58.04992278 119.39137438 -58.06247217 123.54892813 -58.07269287 127.70651245 C-58.08984568 135.8393641 -58.09072814 143.97213836 -58.08547997 152.10500339 C-58.08143019 158.71929903 -58.08289141 165.33357188 -58.08822823 171.94786644 C-58.08935086 173.36269167 -58.08935086 173.36269167 -58.09049617 174.80609923 C-58.09202773 176.72256886 -58.09356608 178.63903848 -58.09511114 180.5555081 C-58.10882365 198.50819075 -58.10340745 216.46082977 -58.09192593 234.41351142 C-58.08199659 250.81470261 -58.09493128 267.21578094 -58.11886012 283.61695472 C-58.14328039 300.48285386 -58.15285169 317.3487005 -58.14620739 334.21461695 C-58.14272145 343.67344392 -58.14490574 353.13218415 -58.16245842 362.5909977 C-58.17721713 370.64367444 -58.17776815 378.69620336 -58.16038751 386.74887732 C-58.15190492 390.85207648 -58.14966025 394.95501197 -58.16503906 399.05819702 C-58.17897888 402.82428537 -58.1740055 406.58988651 -58.15479983 410.35594734 C-58.14931806 412.34253635 -58.16323343 414.32915075 -58.17815393 416.31569129 C-58.04457536 432.83607946 -52.92146971 449.20061454 -41.46034241 461.50263977 C-25.66141944 475.83743841 -8.75219973 481.80348904 12.36216736 481.64546204 C13.79305585 481.64929838 15.22394045 481.65492852 16.65481567 481.66218567 C19.70109773 481.67401061 22.74703436 481.67374665 25.79332161 481.66359138 C30.61440281 481.64786605 35.43513751 481.66181756 40.25619507 481.67962646 C49.60784911 481.71025647 58.95939361 481.71195301 68.31108856 481.7099762 C80.24706373 481.70857713 92.18295626 481.71895178 104.1188702 481.75855392 C108.90841286 481.77345259 113.69764215 481.77324573 118.48718941 481.76107609 C121.46260655 481.75636124 124.43790383 481.76388949 127.41330147 481.77462006 C128.78953133 481.77702256 130.16578139 481.77430365 131.54198837 481.76601219 C133.42424556 481.75535104 135.3065845 481.76489181 137.18884277 481.77536011 C138.24048394 481.7747738 139.29212511 481.77418749 140.37563419 481.77358341 C145.20130087 482.37925958 148.42414291 484.11883042 151.66465759 487.70967102 C155.0967572 492.66714824 154.95381806 497.23084307 154.35215759 503.14717102 C152.14532204 507.72431142 149.85269652 509.90695759 145.35215759 512.14717102 C142.4049778 512.52469444 142.4049778 512.52469444 139.08131409 512.52812195 C137.18509308 512.54081116 137.18509308 512.54081116 135.25056458 512.55375671 C133.85685601 512.54792398 132.46314871 512.54177948 131.06944275 512.53535461 C129.59552115 512.53942183 128.12160261 512.54476456 126.64768982 512.55128479 C122.64703027 512.56495838 118.64660295 512.55965645 114.64593935 512.55014753 C110.44622974 512.54253689 106.24653964 512.54960177 102.04682922 512.55430603 C94.98369293 512.55976551 87.92065069 512.55257323 80.85752869 512.5382843 C72.72505642 512.52202057 64.59281056 512.52719958 56.46034396 512.54376352 C49.45792398 512.55744873 42.45557158 512.55926203 35.45314252 512.55144751 C31.28041156 512.54680125 27.10778632 512.5460599 22.93506241 512.55605698 C19.00004449 512.56482495 15.06531282 512.55852867 11.13032532 512.54137421 C9.69822537 512.53745841 8.26610069 512.53845736 6.83401108 512.5451622 C-20.32359974 512.66042607 -43.47698988 502.83633297 -63.01502991 483.84638977 C-82.77106088 462.96241931 -89.9942539 436.98079397 -89.90853882 408.79127502 C-89.91156911 407.41418495 -89.91546293 406.03709655 -89.92013139 404.66001105 C-89.93030737 400.92242756 -89.92825651 397.1849411 -89.92395079 393.44735003 C-89.9214644 389.39812244 -89.93052129 385.34891709 -89.93798828 381.29969788 C-89.95068485 373.38450448 -89.95253527 365.46934509 -89.95018802 357.55414322 C-89.94839893 351.11444299 -89.95016711 344.67475302 -89.95441246 338.23505402 C-89.95500765 337.31560145 -89.95560284 336.39614888 -89.95621606 335.44883411 C-89.95742792 333.58044801 -89.95864206 331.71206192 -89.95985844 329.84367582 C-89.97071468 312.35345372 -89.96858066 294.86325095 -89.96247359 277.37302777 C-89.95730689 261.40800588 -89.96855681 245.44304506 -89.98757181 229.47803524 C-90.00699157 213.04595254 -90.01519893 196.61389866 -90.01144856 180.18180442 C-90.00954269 170.97218296 -90.01196383 161.76261344 -90.0261631 152.5530014 C-90.03813081 144.71206971 -90.03942185 136.87122193 -90.02737293 129.03028896 C-90.02152165 125.03800105 -90.02027947 121.0458662 -90.03237534 117.05358887 C-90.1308466 82.06731187 -86.0515203 52.66774781 -60.98377991 26.35029602 C-44.59130901 10.77986643 -22.87695032 0.08718024 0 0 Z " fill="#000000" transform="translate(107.64784240722656,-0.1471710205078125)"/>
<path d="M0 0 C6.48750779 4.04326994 11.8283035 9.53181055 17.19824219 14.90771484 C18.52171913 16.22111595 18.52171913 16.22111595 19.87193298 17.56105042 C22.27019195 19.94366082 24.66389005 22.33065829 27.05497265 24.72045851 C28.55280974 26.21686658 30.05206516 27.7118385 31.55182648 29.2063179 C36.79399241 34.43003605 42.03102345 39.65883846 47.26318359 44.89257812 C52.12562176 49.75621925 56.99912379 54.60857517 61.87790751 59.45581472 C66.08144883 63.63315148 70.27718868 67.81821753 74.46700978 72.00931513 C76.96299057 74.50580392 79.46192388 76.99914272 81.96877289 79.48472214 C84.7635764 82.2564515 87.54207278 85.04418643 90.31933594 87.83349609 C91.14330368 88.64622482 91.96727142 89.45895355 92.81620789 90.29631042 C97.73815626 95.27261469 102.42089085 100.29473816 103.3125 107.5390625 C103.209375 108.22742188 103.10625 108.91578125 103 109.625 C102.9175 110.31851563 102.835 111.01203125 102.75 111.7265625 C100.37471377 118.92664887 94.25348676 124.04884569 89.04394531 129.26245117 C88.13937592 130.17534409 87.23480652 131.088237 86.30282593 132.02879333 C83.83234673 134.52111849 81.35541734 137.00693188 78.87654209 139.49090362 C77.32564796 141.04545163 75.77605745 142.60128737 74.22689056 144.15755653 C68.81549036 149.59341219 63.39842797 155.02355806 57.9765625 160.44897461 C52.93301337 165.49616086 47.90275666 170.55633577 42.87836003 175.62258166 C38.55417361 179.98151 34.22036781 184.33071838 29.8791244 188.67265874 C27.29074721 191.26182709 24.70646246 193.85477763 22.13199615 196.45778465 C19.25973441 199.36117699 16.3677538 202.24412895 13.47363281 205.12573242 C12.20774826 206.41386841 12.20774826 206.41386841 10.91629028 207.72802734 C5.76060912 212.82048123 1.08339737 216.93743511 -6.5390625 217.03125 C-11.88096257 215.67076609 -15.16646337 214.02053841 -19 210 C-21.28833963 206.04741337 -21.39569707 202.51094661 -21 198 C-18.84083069 192.56373727 -15.50857112 189.09739673 -11.41723633 185.07666016 C-10.75355545 184.4125412 -10.08987457 183.74842224 -9.40608215 183.06417847 C-7.22177081 180.88194863 -5.02704381 178.71052363 -2.83203125 176.5390625 C-1.31108798 175.02371742 0.20919208 173.50770641 1.72883606 171.99105835 C5.72202938 168.00929605 9.72415099 164.03662706 13.72821045 160.0657959 C17.81578296 156.00896159 21.89483138 151.94357641 25.97460938 147.87890625 C33.97476174 139.91088733 41.98437407 131.95245061 50 124 C49.36786714 123.99940291 48.73573429 123.99880582 48.08444589 123.99819064 C10.62383609 123.96230114 -26.83668895 123.90566904 -64.29722378 123.82207905 C-68.79458441 123.81206152 -73.2919454 123.8022174 -77.78930664 123.79248047 C-79.13232903 123.78956841 -79.13232903 123.78956841 -80.50248318 123.78659752 C-95.00216936 123.75557161 -109.50183971 123.73859522 -124.00155283 123.72680578 C-138.87824508 123.71439728 -153.75485421 123.6869027 -168.63149399 123.64538693 C-177.81210262 123.62024289 -186.99257343 123.60688338 -196.17321699 123.60857043 C-202.46768563 123.60860017 -208.76201381 123.59398371 -215.05642772 123.56783572 C-218.68868567 123.5531797 -222.32065558 123.54499526 -225.95293808 123.55419731 C-229.89183126 123.56400728 -233.83021821 123.54298284 -237.76905823 123.51898193 C-238.91595283 123.52674235 -240.06284742 123.53450277 -241.24449641 123.54249835 C-247.71267001 123.47257571 -251.75467619 122.89066583 -257 119 C-260.13802477 115.02516863 -261.23069524 111.1112683 -260.85546875 106.05078125 C-259.95747197 100.8700306 -257.82407032 98.35514862 -253.75390625 95.12890625 C-250.50779516 93.03953853 -247.72856152 92.87236452 -243.97688007 92.8613348 C-242.41084253 92.85312313 -242.41084253 92.85312313 -240.81316787 92.84474558 C-239.6624038 92.84376747 -238.51163973 92.84278936 -237.32600403 92.84178162 C-236.10654215 92.83684364 -234.88708027 92.83190566 -233.630665 92.82681805 C-230.23976511 92.81408763 -226.84890647 92.80581394 -223.4579922 92.79939139 C-219.80360206 92.79139453 -216.14923287 92.7776943 -212.49485779 92.76467896 C-206.16138679 92.74290607 -199.82791369 92.72476455 -193.49442482 92.70907402 C-184.33720976 92.68638279 -175.18001788 92.65823893 -166.02282246 92.62875474 C-151.16667377 92.58106967 -136.31051561 92.53780796 -121.4543457 92.49731445 C-107.02106997 92.45796418 -92.58780267 92.41653908 -78.15454102 92.37231445 C-77.2652045 92.36959018 -76.37586799 92.36686591 -75.45958189 92.36405908 C-70.99814045 92.35037968 -66.53669914 92.33665939 -62.0752579 92.32291877 C-25.05018941 92.20893962 11.97489704 92.10213344 49 92 C48.18202942 91.19091187 47.36405884 90.38182373 46.52130127 89.54821777 C38.80075603 81.90888335 31.09088891 74.25891457 23.39125443 66.59850311 C19.4327873 62.66087905 15.47069932 58.72704966 11.5 54.80175781 C7.66567031 51.01100153 3.84129547 47.21045725 0.02352142 43.4030304 C-1.43216546 41.95471414 -2.89135913 40.50991343 -4.35414886 39.06877136 C-6.40802898 37.04407652 -8.44889706 35.00705242 -10.48730469 32.96679688 C-11.09007233 32.37841034 -11.69283997 31.7900238 -12.31387329 31.18380737 C-17.12822826 26.3222503 -20.53587187 21.30691294 -21.5 14.4375 C-20.68114693 8.80788514 -18.53013936 5.45549842 -14.4375 1.5625 C-9.64550879 -0.61567782 -5.14850417 -1.25672149 0 0 Z " fill="#000000" transform="translate(391,148)"/>
</svg>
